<?xml version="1.0" standalone="no"?>
<!DOCTYPE svg PUBLIC "-//W3C//DTD SVG 20010904//EN"
 "http://www.w3.org/TR/2001/REC-SVG-20010904/DTD/svg10.dtd">
<svg version="1.0" xmlns="http://www.w3.org/2000/svg"
 width="409.000000pt" height="409.000000pt" viewBox="0 0 409.000000 409.000000"
 preserveAspectRatio="xMidYMid meet">
<metadata>
Created by potrace 1.11, written by Peter Selinger 2001-2013
</metadata>
<g transform="translate(0.000000,409.000000) scale(0.100000,-0.100000)"
fill="#000000" stroke="none">
<path d="M970 4032 c-25 -9 -65 -37 -90 -62 -86 -84 -79 77 -78 -1931 1 -1696
2 -1778 19 -1825 23 -62 71 -114 135 -145 l49 -24 1040 0 1040 1 48 23 c60 29
111 89 133 153 15 46 16 201 16 1827 -1 977 -3 1786 -6 1798 -15 69 -71 139
-140 176 l-41 22 -1040 2 c-954 2 -1044 0 -1085 -15z"/>
</g>
</svg>
